<svg width="1440" height="209" viewBox="0 0 1440 209" fill="none" xmlns="http://www.w3.org/2000/svg">
<rect width="1440" height="209" fill="black"/>
<path d="M670.644 86.0984L664.128 92.762V102.113H659V66H664.128V86.2058L683.571 66H689.447L674.17 82.2292L690.515 102.113H684.532L670.644 86.0984Z" fill="white"/>
<path d="M727.905 99.2107L729.935 95.3415C732.285 96.9536 735.918 98.1359 739.443 98.1359C744.037 98.1359 745.853 96.7387 745.853 94.3742C745.853 88.2479 728.653 93.5144 728.653 82.6591C728.653 77.7151 733.033 74.4908 739.977 74.4908C743.503 74.4908 747.562 75.4581 749.912 76.9628L747.776 80.832C745.319 79.2198 742.648 78.6824 739.977 78.6824C735.704 78.6824 733.567 80.2946 733.567 82.4441C733.567 88.8928 750.767 83.6264 750.767 94.2667C750.767 99.2107 746.28 102.328 739.016 102.328C734.636 102.435 730.149 101.038 727.905 99.2107Z" fill="white"/>
<path d="M781 85.5609V102.112H776.299V98.4582C774.697 100.93 771.599 102.327 767.326 102.327C761.13 102.327 757.284 98.9956 757.284 94.2666C757.284 89.86 760.061 86.3132 768.18 86.3132H775.979V85.3459C775.979 81.1543 773.522 78.7898 768.715 78.7898C765.51 78.7898 762.198 79.972 760.061 81.6917L758.032 77.9299C760.809 75.6729 764.869 74.3832 769.249 74.3832C776.834 74.4907 781 78.1449 781 85.5609ZM776.086 93.7292V89.86H768.501C763.587 89.86 762.198 91.7946 762.198 94.0516C762.198 96.7386 764.441 98.4582 768.18 98.4582C771.919 98.5657 774.911 96.9535 776.086 93.7292Z" fill="white"/>
<path d="M712.095 94.9118V102.22L715.193 100.393V93.0847L712.095 94.9118Z" fill="white"/>
<path d="M720.641 85.9909L707.928 78.5749L700.877 74.4908L693.933 86.6358L694.04 98.0284L706.646 105.444L707.928 104.692V93.9443L713.59 83.9488L719.359 87.2806V98.0284L720.641 97.2761V85.9909Z" fill="white"/>
<path d="M538.377 172.072C536.809 172.072 535.377 171.696 534.081 170.944C532.801 170.192 531.785 169.168 531.033 167.872C530.297 166.576 529.929 165.152 529.929 163.6C529.929 162.048 530.297 160.624 531.033 159.328C531.785 158.032 532.809 157.008 534.105 156.256C535.401 155.504 536.841 155.128 538.425 155.128C540.009 155.128 541.441 155.496 542.721 156.232C544.017 156.968 545.033 157.984 545.769 159.28C546.505 160.56 546.873 161.984 546.873 163.552C546.873 165.12 546.497 166.56 545.745 167.872C544.993 169.168 543.969 170.192 542.673 170.944C541.377 171.696 539.945 172.072 538.377 172.072ZM538.377 170.992C539.753 170.992 541.001 170.664 542.121 170.008C543.241 169.352 544.121 168.456 544.761 167.32C545.417 166.184 545.745 164.928 545.745 163.552C545.745 162.176 545.425 160.928 544.785 159.808C544.161 158.688 543.289 157.808 542.169 157.168C541.065 156.528 539.817 156.208 538.425 156.208C537.049 156.208 535.793 156.536 534.657 157.192C533.537 157.848 532.657 158.744 532.017 159.88C531.377 161 531.057 162.24 531.057 163.6C531.057 164.96 531.377 166.208 532.017 167.344C532.657 168.464 533.537 169.352 534.657 170.008C535.777 170.664 537.017 170.992 538.377 170.992ZM538.641 168.544C537.665 168.544 536.793 168.336 536.025 167.92C535.257 167.504 534.657 166.92 534.225 166.168C533.793 165.416 533.577 164.56 533.577 163.6C533.577 162.64 533.793 161.784 534.225 161.032C534.657 160.28 535.257 159.696 536.025 159.28C536.793 158.864 537.665 158.656 538.641 158.656C539.473 158.656 540.233 158.832 540.921 159.184C541.609 159.536 542.145 160.008 542.529 160.6L541.161 161.584C540.585 160.72 539.737 160.288 538.617 160.288C537.689 160.288 536.921 160.592 536.313 161.2C535.705 161.808 535.401 162.608 535.401 163.6C535.401 164.592 535.705 165.392 536.313 166C536.921 166.608 537.689 166.912 538.617 166.912C539.737 166.912 540.585 166.48 541.161 165.616L542.529 166.576C542.145 167.184 541.609 167.664 540.921 168.016C540.233 168.368 539.473 168.544 538.641 168.544ZM567.425 169.912V172H555.353V170.368L562.193 163.768C563.025 162.968 563.585 162.28 563.873 161.704C564.161 161.112 564.305 160.52 564.305 159.928C564.305 159.048 563.993 158.368 563.369 157.888C562.761 157.392 561.881 157.144 560.729 157.144C558.873 157.144 557.441 157.752 556.433 158.968L554.801 157.552C555.457 156.752 556.313 156.128 557.369 155.68C558.441 155.232 559.633 155.008 560.945 155.008C562.705 155.008 564.105 155.432 565.145 156.28C566.185 157.112 566.705 158.248 566.705 159.688C566.705 160.584 566.513 161.432 566.129 162.232C565.745 163.032 565.017 163.944 563.945 164.968L558.809 169.912H567.425ZM576.192 172.192C574.864 172.192 573.68 171.856 572.64 171.184C571.616 170.496 570.808 169.504 570.216 168.208C569.624 166.912 569.328 165.376 569.328 163.6C569.328 161.824 569.624 160.288 570.216 158.992C570.808 157.696 571.616 156.712 572.64 156.04C573.68 155.352 574.864 155.008 576.192 155.008C577.504 155.008 578.672 155.352 579.696 156.04C580.736 156.712 581.552 157.696 582.144 158.992C582.736 160.288 583.032 161.824 583.032 163.6C583.032 165.376 582.736 166.912 582.144 168.208C581.552 169.504 580.736 170.496 579.696 171.184C578.672 171.856 577.504 172.192 576.192 172.192ZM576.192 170.056C577.536 170.056 578.608 169.504 579.408 168.4C580.224 167.296 580.632 165.696 580.632 163.6C580.632 161.504 580.224 159.904 579.408 158.8C578.608 157.696 577.536 157.144 576.192 157.144C574.832 157.144 573.744 157.696 572.928 158.8C572.128 159.904 571.728 161.504 571.728 163.6C571.728 165.696 572.128 167.296 572.928 168.4C573.744 169.504 574.832 170.056 576.192 170.056ZM597.073 169.912V172H585.001V170.368L591.841 163.768C592.673 162.968 593.233 162.28 593.521 161.704C593.809 161.112 593.953 160.52 593.953 159.928C593.953 159.048 593.641 158.368 593.017 157.888C592.409 157.392 591.529 157.144 590.377 157.144C588.521 157.144 587.089 157.752 586.081 158.968L584.449 157.552C585.105 156.752 585.961 156.128 587.017 155.68C588.089 155.232 589.281 155.008 590.593 155.008C592.353 155.008 593.753 155.432 594.793 156.28C595.833 157.112 596.353 158.248 596.353 159.688C596.353 160.584 596.161 161.432 595.777 162.232C595.393 163.032 594.665 163.944 593.593 164.968L588.457 169.912H597.073ZM605.84 172.192C604.512 172.192 603.328 171.856 602.288 171.184C601.264 170.496 600.456 169.504 599.864 168.208C599.272 166.912 598.976 165.376 598.976 163.6C598.976 161.824 599.272 160.288 599.864 158.992C600.456 157.696 601.264 156.712 602.288 156.04C603.328 155.352 604.512 155.008 605.84 155.008C607.152 155.008 608.32 155.352 609.344 156.04C610.384 156.712 611.2 157.696 611.792 158.992C612.384 160.288 612.68 161.824 612.68 163.6C612.68 165.376 612.384 166.912 611.792 168.208C611.2 169.504 610.384 170.496 609.344 171.184C608.32 171.856 607.152 172.192 605.84 172.192ZM605.84 170.056C607.184 170.056 608.256 169.504 609.056 168.4C609.872 167.296 610.28 165.696 610.28 163.6C610.28 161.504 609.872 159.904 609.056 158.8C608.256 157.696 607.184 157.144 605.84 157.144C604.48 157.144 603.392 157.696 602.576 158.8C601.776 159.904 601.376 161.504 601.376 163.6C601.376 165.696 601.776 167.296 602.576 168.4C603.392 169.504 604.48 170.056 605.84 170.056ZM628.269 164.536L625.197 167.656V172H622.797V155.2H625.197V164.584L634.317 155.2H637.053L629.877 162.76L637.509 172H634.701L628.269 164.536ZM644.039 159.16C645.799 159.16 647.143 159.592 648.071 160.456C649.015 161.32 649.487 162.608 649.487 164.32V172H647.303V170.32C646.919 170.912 646.367 171.368 645.647 171.688C644.943 171.992 644.103 172.144 643.127 172.144C641.703 172.144 640.559 171.8 639.695 171.112C638.847 170.424 638.423 169.52 638.423 168.4C638.423 167.28 638.831 166.384 639.647 165.712C640.463 165.024 641.759 164.68 643.535 164.68H647.183V164.224C647.183 163.232 646.895 162.472 646.319 161.944C645.743 161.416 644.895 161.152 643.775 161.152C643.023 161.152 642.287 161.28 641.567 161.536C640.847 161.776 640.239 162.104 639.743 162.52L638.783 160.792C639.439 160.264 640.223 159.864 641.135 159.592C642.047 159.304 643.015 159.16 644.039 159.16ZM643.511 170.368C644.391 170.368 645.151 170.176 645.791 169.792C646.431 169.392 646.895 168.832 647.183 168.112V166.336H643.631C641.679 166.336 640.703 166.992 640.703 168.304C640.703 168.944 640.951 169.448 641.447 169.816C641.943 170.184 642.631 170.368 643.511 170.368ZM657.398 172.144C656.358 172.144 655.358 172.008 654.398 171.736C653.438 171.448 652.686 171.088 652.142 170.656L653.102 168.832C653.662 169.232 654.342 169.552 655.142 169.792C655.942 170.032 656.75 170.152 657.566 170.152C659.582 170.152 660.59 169.576 660.59 168.424C660.59 168.04 660.454 167.736 660.182 167.512C659.91 167.288 659.566 167.128 659.15 167.032C658.75 166.92 658.174 166.8 657.422 166.672C656.398 166.512 655.558 166.328 654.902 166.12C654.262 165.912 653.71 165.56 653.246 165.064C652.782 164.568 652.55 163.872 652.55 162.976C652.55 161.824 653.03 160.904 653.99 160.216C654.95 159.512 656.238 159.16 657.854 159.16C658.702 159.16 659.55 159.264 660.398 159.472C661.246 159.68 661.942 159.96 662.486 160.312L661.502 162.136C660.462 161.464 659.238 161.128 657.83 161.128C656.854 161.128 656.11 161.288 655.598 161.608C655.086 161.928 654.83 162.352 654.83 162.88C654.83 163.296 654.974 163.624 655.262 163.864C655.55 164.104 655.902 164.28 656.318 164.392C656.75 164.504 657.35 164.632 658.118 164.776C659.142 164.952 659.966 165.144 660.59 165.352C661.23 165.544 661.774 165.88 662.222 166.36C662.67 166.84 662.894 167.512 662.894 168.376C662.894 169.528 662.398 170.448 661.406 171.136C660.43 171.808 659.094 172.144 657.398 172.144ZM670.406 159.16C672.166 159.16 673.51 159.592 674.438 160.456C675.382 161.32 675.854 162.608 675.854 164.32V172H673.67V170.32C673.286 170.912 672.734 171.368 672.014 171.688C671.31 171.992 670.47 172.144 669.494 172.144C668.07 172.144 666.926 171.8 666.062 171.112C665.214 170.424 664.79 169.52 664.79 168.4C664.79 167.28 665.198 166.384 666.014 165.712C666.83 165.024 668.126 164.68 669.902 164.68H673.55V164.224C673.55 163.232 673.262 162.472 672.686 161.944C672.11 161.416 671.262 161.152 670.142 161.152C669.39 161.152 668.654 161.28 667.934 161.536C667.214 161.776 666.606 162.104 666.11 162.52L665.15 160.792C665.806 160.264 666.59 159.864 667.502 159.592C668.414 159.304 669.382 159.16 670.406 159.16ZM669.878 170.368C670.758 170.368 671.518 170.176 672.158 169.792C672.798 169.392 673.262 168.832 673.55 168.112V166.336H669.998C668.046 166.336 667.07 166.992 667.07 168.304C667.07 168.944 667.318 169.448 667.814 169.816C668.31 170.184 668.998 170.368 669.878 170.368ZM680.67 172.144C680.222 172.144 679.838 171.992 679.518 171.688C679.198 171.368 679.038 170.968 679.038 170.488C679.038 170.024 679.198 169.64 679.518 169.336C679.838 169.016 680.222 168.856 680.67 168.856C681.118 168.856 681.494 169.008 681.798 169.312C682.102 169.616 682.254 170.008 682.254 170.488C682.254 170.968 682.094 171.368 681.774 171.688C681.47 171.992 681.102 172.144 680.67 172.144ZM703.04 167.8H694.112L692.264 172H689.792L697.4 155.2H699.776L707.408 172H704.888L703.04 167.8ZM702.2 165.88L698.576 157.648L694.952 165.88H702.2ZM709.579 154.192H711.883V172H709.579V154.192ZM716.282 154.192H718.586V172H716.282V154.192ZM731.638 161.416C732.038 160.68 732.63 160.12 733.414 159.736C734.198 159.352 735.15 159.16 736.27 159.16V161.392C736.142 161.376 735.966 161.368 735.742 161.368C734.494 161.368 733.51 161.744 732.79 162.496C732.086 163.232 731.734 164.288 731.734 165.664V172H729.43V159.28H731.638V161.416ZM739.11 159.28H741.414V172H739.11V159.28ZM740.262 156.832C739.814 156.832 739.438 156.688 739.134 156.4C738.846 156.112 738.702 155.76 738.702 155.344C738.702 154.928 738.846 154.576 739.134 154.288C739.438 153.984 739.814 153.832 740.262 153.832C740.71 153.832 741.078 153.976 741.366 154.264C741.67 154.536 741.822 154.88 741.822 155.296C741.822 155.728 741.67 156.096 741.366 156.4C741.078 156.688 740.71 156.832 740.262 156.832ZM757.981 159.28V170.272C757.981 172.496 757.429 174.136 756.325 175.192C755.221 176.264 753.573 176.8 751.381 176.8C750.181 176.8 749.037 176.632 747.949 176.296C746.861 175.976 745.981 175.512 745.309 174.904L746.413 173.128C747.005 173.64 747.733 174.04 748.597 174.328C749.477 174.632 750.381 174.784 751.309 174.784C752.797 174.784 753.893 174.432 754.597 173.728C755.317 173.024 755.677 171.952 755.677 170.512V169.504C755.133 170.16 754.461 170.656 753.661 170.992C752.877 171.312 752.021 171.472 751.093 171.472C749.877 171.472 748.773 171.216 747.781 170.704C746.805 170.176 746.037 169.448 745.477 168.52C744.917 167.576 744.637 166.504 744.637 165.304C744.637 164.104 744.917 163.04 745.477 162.112C746.037 161.168 746.805 160.44 747.781 159.928C748.773 159.416 749.877 159.16 751.093 159.16C752.053 159.16 752.941 159.336 753.757 159.688C754.589 160.04 755.269 160.56 755.797 161.248V159.28H757.981ZM751.357 169.456C752.189 169.456 752.933 169.28 753.589 168.928C754.261 168.576 754.781 168.088 755.149 167.464C755.533 166.824 755.725 166.104 755.725 165.304C755.725 164.072 755.317 163.08 754.501 162.328C753.685 161.56 752.637 161.176 751.357 161.176C750.061 161.176 749.005 161.56 748.189 162.328C747.373 163.08 746.965 164.072 746.965 165.304C746.965 166.104 747.149 166.824 747.517 167.464C747.901 168.088 748.421 168.576 749.077 168.928C749.749 169.28 750.509 169.456 751.357 169.456ZM769.175 159.16C770.791 159.16 772.071 159.632 773.015 160.576C773.975 161.504 774.455 162.872 774.455 164.68V172H772.151V164.944C772.151 163.712 771.855 162.784 771.263 162.16C770.671 161.536 769.823 161.224 768.719 161.224C767.471 161.224 766.487 161.592 765.767 162.328C765.047 163.048 764.687 164.088 764.687 165.448V172H762.383V154.192H764.687V161.08C765.167 160.472 765.791 160 766.559 159.664C767.343 159.328 768.215 159.16 769.175 159.16ZM785.871 171.256C785.535 171.544 785.119 171.768 784.623 171.928C784.127 172.072 783.615 172.144 783.087 172.144C781.807 172.144 780.815 171.8 780.111 171.112C779.407 170.424 779.055 169.44 779.055 168.16V161.176H776.895V159.28H779.055V156.496H781.359V159.28H785.007V161.176H781.359V168.064C781.359 168.752 781.527 169.28 781.863 169.648C782.215 170.016 782.711 170.2 783.351 170.2C784.055 170.2 784.655 170 785.151 169.6L785.871 171.256ZM792.305 172.144C791.265 172.144 790.265 172.008 789.305 171.736C788.345 171.448 787.593 171.088 787.049 170.656L788.009 168.832C788.569 169.232 789.249 169.552 790.049 169.792C790.849 170.032 791.657 170.152 792.473 170.152C794.489 170.152 795.497 169.576 795.497 168.424C795.497 168.04 795.361 167.736 795.089 167.512C794.817 167.288 794.473 167.128 794.057 167.032C793.657 166.92 793.081 166.8 792.329 166.672C791.305 166.512 790.465 166.328 789.809 166.12C789.169 165.912 788.617 165.56 788.153 165.064C787.689 164.568 787.457 163.872 787.457 162.976C787.457 161.824 787.937 160.904 788.897 160.216C789.857 159.512 791.145 159.16 792.761 159.16C793.609 159.16 794.457 159.264 795.305 159.472C796.153 159.68 796.849 159.96 797.393 160.312L796.409 162.136C795.369 161.464 794.145 161.128 792.737 161.128C791.761 161.128 791.017 161.288 790.505 161.608C789.993 161.928 789.737 162.352 789.737 162.88C789.737 163.296 789.881 163.624 790.169 163.864C790.457 164.104 790.809 164.28 791.225 164.392C791.657 164.504 792.257 164.632 793.025 164.776C794.049 164.952 794.873 165.144 795.497 165.352C796.137 165.544 796.681 165.88 797.129 166.36C797.577 166.84 797.801 167.512 797.801 168.376C797.801 169.528 797.305 170.448 796.313 171.136C795.337 171.808 794.001 172.144 792.305 172.144ZM809.333 161.416C809.733 160.68 810.325 160.12 811.109 159.736C811.893 159.352 812.845 159.16 813.965 159.16V161.392C813.837 161.376 813.661 161.368 813.437 161.368C812.189 161.368 811.205 161.744 810.485 162.496C809.781 163.232 809.429 164.288 809.429 165.664V172H807.125V159.28H809.333V161.416ZM828.184 165.712C828.184 165.888 828.168 166.12 828.136 166.408H817.816C817.96 167.528 818.448 168.432 819.28 169.12C820.128 169.792 821.176 170.128 822.424 170.128C823.944 170.128 825.168 169.616 826.096 168.592L827.368 170.08C826.792 170.752 826.072 171.264 825.208 171.616C824.36 171.968 823.408 172.144 822.352 172.144C821.008 172.144 819.816 171.872 818.776 171.328C817.736 170.768 816.928 169.992 816.352 169C815.792 168.008 815.512 166.888 815.512 165.64C815.512 164.408 815.784 163.296 816.328 162.304C816.888 161.312 817.648 160.544 818.608 160C819.584 159.44 820.68 159.16 821.896 159.16C823.112 159.16 824.192 159.44 825.136 160C826.096 160.544 826.84 161.312 827.368 162.304C827.912 163.296 828.184 164.432 828.184 165.712ZM821.896 161.104C820.792 161.104 819.864 161.44 819.112 162.112C818.376 162.784 817.944 163.664 817.816 164.752H825.976C825.848 163.68 825.408 162.808 824.656 162.136C823.92 161.448 823 161.104 821.896 161.104ZM835.031 172.144C833.991 172.144 832.991 172.008 832.031 171.736C831.071 171.448 830.319 171.088 829.775 170.656L830.735 168.832C831.295 169.232 831.975 169.552 832.775 169.792C833.575 170.032 834.383 170.152 835.199 170.152C837.215 170.152 838.223 169.576 838.223 168.424C838.223 168.04 838.087 167.736 837.815 167.512C837.543 167.288 837.199 167.128 836.783 167.032C836.383 166.92 835.807 166.8 835.055 166.672C834.031 166.512 833.191 166.328 832.535 166.12C831.895 165.912 831.343 165.56 830.879 165.064C830.415 164.568 830.183 163.872 830.183 162.976C830.183 161.824 830.663 160.904 831.623 160.216C832.583 159.512 833.871 159.16 835.487 159.16C836.335 159.16 837.183 159.264 838.031 159.472C838.879 159.68 839.575 159.96 840.119 160.312L839.135 162.136C838.095 161.464 836.871 161.128 835.463 161.128C834.487 161.128 833.743 161.288 833.231 161.608C832.719 161.928 832.463 162.352 832.463 162.88C832.463 163.296 832.607 163.624 832.895 163.864C833.183 164.104 833.535 164.28 833.951 164.392C834.383 164.504 834.983 164.632 835.751 164.776C836.775 164.952 837.599 165.144 838.223 165.352C838.863 165.544 839.407 165.88 839.855 166.36C840.303 166.84 840.527 167.512 840.527 168.376C840.527 169.528 840.031 170.448 839.039 171.136C838.063 171.808 836.727 172.144 835.031 172.144ZM854.903 165.712C854.903 165.888 854.887 166.12 854.855 166.408H844.535C844.679 167.528 845.167 168.432 845.999 169.12C846.847 169.792 847.895 170.128 849.143 170.128C850.663 170.128 851.887 169.616 852.815 168.592L854.087 170.08C853.511 170.752 852.791 171.264 851.927 171.616C851.079 171.968 850.127 172.144 849.071 172.144C847.727 172.144 846.535 171.872 845.495 171.328C844.455 170.768 843.647 169.992 843.071 169C842.511 168.008 842.231 166.888 842.231 165.64C842.231 164.408 842.503 163.296 843.047 162.304C843.607 161.312 844.367 160.544 845.327 160C846.303 159.44 847.399 159.16 848.615 159.16C849.831 159.16 850.911 159.44 851.855 160C852.815 160.544 853.559 161.312 854.087 162.304C854.631 163.296 854.903 164.432 854.903 165.712ZM848.615 161.104C847.511 161.104 846.583 161.44 845.831 162.112C845.095 162.784 844.663 163.664 844.535 164.752H852.695C852.567 163.68 852.127 162.808 851.375 162.136C850.639 161.448 849.719 161.104 848.615 161.104ZM860.31 161.416C860.71 160.68 861.302 160.12 862.086 159.736C862.87 159.352 863.822 159.16 864.942 159.16V161.392C864.814 161.376 864.638 161.368 864.414 161.368C863.166 161.368 862.182 161.744 861.462 162.496C860.758 163.232 860.406 164.288 860.406 165.664V172H858.102V159.28H860.31V161.416ZM879.553 159.28L873.985 172H871.633L866.065 159.28H868.465L872.833 169.48L877.297 159.28H879.553ZM892.848 165.712C892.848 165.888 892.832 166.12 892.8 166.408H882.48C882.624 167.528 883.112 168.432 883.944 169.12C884.792 169.792 885.84 170.128 887.088 170.128C888.608 170.128 889.832 169.616 890.76 168.592L892.032 170.08C891.456 170.752 890.736 171.264 889.872 171.616C889.024 171.968 888.072 172.144 887.016 172.144C885.672 172.144 884.48 171.872 883.44 171.328C882.4 170.768 881.592 169.992 881.016 169C880.456 168.008 880.176 166.888 880.176 165.64C880.176 164.408 880.448 163.296 880.992 162.304C881.552 161.312 882.312 160.544 883.272 160C884.248 159.44 885.344 159.16 886.56 159.16C887.776 159.16 888.856 159.44 889.8 160C890.76 160.544 891.504 161.312 892.032 162.304C892.576 163.296 892.848 164.432 892.848 165.712ZM886.56 161.104C885.456 161.104 884.528 161.44 883.776 162.112C883.04 162.784 882.608 163.664 882.48 164.752H890.64C890.512 163.68 890.072 162.808 889.32 162.136C888.584 161.448 887.664 161.104 886.56 161.104ZM908.047 154.192V172H905.839V169.984C905.327 170.688 904.679 171.224 903.895 171.592C903.111 171.96 902.247 172.144 901.303 172.144C900.071 172.144 898.967 171.872 897.991 171.328C897.015 170.784 896.247 170.024 895.687 169.048C895.143 168.056 894.871 166.92 894.871 165.64C894.871 164.36 895.143 163.232 895.687 162.256C896.247 161.28 897.015 160.52 897.991 159.976C898.967 159.432 900.071 159.16 901.303 159.16C902.215 159.16 903.055 159.336 903.823 159.688C904.591 160.024 905.231 160.528 905.743 161.2V154.192H908.047ZM901.495 170.128C902.295 170.128 903.023 169.944 903.679 169.576C904.335 169.192 904.847 168.664 905.215 167.992C905.583 167.304 905.767 166.52 905.767 165.64C905.767 164.76 905.583 163.984 905.215 163.312C904.847 162.624 904.335 162.096 903.679 161.728C903.023 161.36 902.295 161.176 901.495 161.176C900.679 161.176 899.943 161.36 899.287 161.728C898.647 162.096 898.135 162.624 897.751 163.312C897.383 163.984 897.199 164.76 897.199 165.64C897.199 166.52 897.383 167.304 897.751 167.992C898.135 168.664 898.647 169.192 899.287 169.576C899.943 169.944 900.679 170.128 901.495 170.128Z" fill="white"/>
</svg>
